<svg width="30" height="30" viewBox="0 0 30 30" fill="none" xmlns="http://www.w3.org/2000/svg">
<path d="M27.4906 1.36364C28.1224 1.36364 28.6364 1.8776 28.6364 2.50935V27.4906C28.6364 28.1224 28.1224 28.6364 27.4906 28.6364H2.50935C1.8776 28.6364 1.36364 28.1224 1.36364 27.4906V2.50935C1.36364 1.8776 1.8776 1.36364 2.50935 1.36364H27.4906ZM27.4906 0H2.50935C1.12347 0 0 1.12347 0 2.50935V27.4906C0 28.8765 1.12347 30 2.50935 30H27.4906C28.8765 30 30 28.8765 30 27.4906V2.50935C30 1.12347 28.8765 0 27.4906 0Z" fill="#718355"/>
<path d="M17.0782 13.3304L25.2013 4.09091H23.2767L16.2201 12.1117L10.5882 4.09091H4.09091L12.6094 16.2209L4.09091 25.9091H6.01559L13.4629 17.4368L19.4118 25.9091H25.9091L17.0782 13.3304ZM6.70967 5.51069H9.66637L15.21 13.2676L16.0707 14.4762L23.2757 24.5585H20.319L6.70967 5.51069Z" fill="#718355"/>
</svg>
