<svg width="30" height="30" viewBox="0 0 30 30"  xmlns="http://www.w3.org/2000/svg">
<path fill-rule="evenodd" clip-rule="evenodd" d="M25.629 4.35968C22.8088 1.54976 19.0584 0.00162929 15.0626 0C6.82944 0 0.128483 6.66838 0.125269 14.8647C0.124117 17.4849 0.811948 20.0423 2.11915 22.2967L0 30L7.91848 27.9328C10.1002 29.1171 12.5567 29.7414 15.0567 29.7422H15.0627V29.7422C23.295 29.7422 29.9965 23.0732 30 14.8766C30.0015 10.9044 28.4492 7.16948 25.629 4.35968ZM15.0627 27.2316H15.0576C12.8299 27.2307 10.6449 26.635 8.73867 25.5093L8.28538 25.2416L3.58643 26.4682L4.8407 21.9088L4.54548 21.4412C3.30273 19.474 2.64637 17.2002 2.64734 14.8656C2.65 8.0531 8.21959 2.51074 15.0677 2.51074C18.3838 2.51176 21.501 3.79872 23.8451 6.13422C26.189 8.46971 27.4792 11.5741 27.4779 14.8756C27.4751 21.6886 21.9057 27.2316 15.0627 27.2316Z" fill="#718355"/>
<path fill-rule="evenodd" clip-rule="evenodd" d="M21.8727 17.9776C21.4995 17.7917 19.6645 16.8933 19.3224 16.7692C18.9803 16.6452 18.7314 16.5833 18.4827 16.9551C18.2339 17.3269 17.5186 18.1636 17.3008 18.4116C17.0832 18.6594 16.8654 18.6906 16.4922 18.5044C16.119 18.3185 14.9164 17.9264 13.4908 16.6609C12.3812 15.6759 11.6322 14.4596 11.4144 14.0876C11.1968 13.7158 11.3913 13.5148 11.5782 13.3296C11.746 13.1631 11.9514 12.8958 12.138 12.6788C12.3246 12.462 12.3868 12.3069 12.5112 12.0592C12.6357 11.8113 12.5735 11.5943 12.4801 11.4085C12.3868 11.2226 11.6404 9.39425 11.3294 8.65039C11.0264 7.9262 10.7187 8.02432 10.4896 8.01279C10.2722 8.00199 10.0231 7.99976 9.7743 7.99976C9.52551 7.99976 9.12109 8.09275 8.77905 8.46453C8.43695 8.83643 7.4727 9.73513 7.4727 11.5633C7.4727 13.3916 8.8101 15.1579 8.99673 15.4057C9.1833 15.6537 11.6285 19.4054 15.3726 21.0144C16.263 21.3972 16.9583 21.6257 17.5003 21.7968C18.3944 22.0796 19.208 22.0396 19.8511 21.944C20.5682 21.8374 22.0593 21.0455 22.3703 20.1779C22.6814 19.3102 22.6814 18.5664 22.588 18.4115C22.4947 18.2566 22.2459 18.1636 21.8727 17.9776Z" fill="#718355"/>
</svg>
